<?xml version="1.0" encoding="UTF-8" standalone="no"?>
<svg
   xmlns:dc="http://purl.org/dc/elements/1.1/"
   xmlns:cc="http://creativecommons.org/ns#"
   xmlns:rdf="http://www.w3.org/1999/02/22-rdf-syntax-ns#"
   xmlns:svg="http://www.w3.org/2000/svg"
   xmlns="http://www.w3.org/2000/svg"
   id="svg14"
   preserveAspectRatio="xMidYMid meet"
   viewBox="0 0 386.42963 213.64319"
   height="213.64319pt"
   width="386.42963pt"
   version="1.0">
  <defs
     id="defs18" />
  <metadata
     id="metadata2">
Created by potrace 1.16, written by Peter Selinger 2001-2019
<rdf:RDF>
  <cc:Work
     rdf:about="">
    <dc:format>image/svg+xml</dc:format>
    <dc:type
       rdf:resource="http://purl.org/dc/dcmitype/StillImage" />
    <dc:title></dc:title>
  </cc:Work>
</rdf:RDF>
</metadata>
  <path
     id="path6"
     d="m 189.8764,0.00566555 c -12.23001,-0.0459 -23.13584,0.1849 -28.35227,0.77267 C 120.0866,5.1865856 87.857707,14.100646 59.155107,28.892766 c -15.37989,8.0328 -24.29551,14.20441 -33.8957,23.70663 -9.89406,9.69815 -17.1426098,20.37541 -21.5508598,31.64094 -2.74290997,6.95524 -3.23227997,9.50274 -3.62412997,19.298854 -0.4898,13.61658 1.07739997,21.45295 6.66117997,32.81644 6.6613498,13.8125 17.4371598,24.8818 35.7558798,37.02899 43.00491,28.31075 106.972763,43.20185 170.941333,39.77322 29.1924,-1.56738 53.68335,-5.97562 78.36954,-14.00842 57.79703,-18.9065 89.14448,-47.80512 94.1405,-86.69567 C 390.16517,79.734766 366.36033,48.876226 318.75126,25.169656 294.35895,13.022486 276.33375,7.6348856 241.85146,2.1490656 234.3207,0.92455555 210.25977,0.08219555 189.8764,0.00566555 Z M 314.4246,36.956286 c 2.11286,-0.028 4.17969,0.69148 5.50217,2.12416 4.40825,4.80009 7.44502,13.61728 13.61658,39.08715 3.33068,14.00843 4.80019,17.04403 8.91456,19.39509 1.56738,0.78369 1.56703,1.47062 0.48945,6.662554 -1.07757,5.2899 -0.97862,6.36678 1.27449,13.41997 4.60417,14.49824 2.25296,20.57133 -7.34723,19.19986 -3.0368,-0.39184 -4.99581,-3.52664 -7.44485,-11.6574 -1.37145,-4.60417 -2.84145,-9.40399 -3.33126,-10.57951 -1.95923,-4.8001 -14.40052,-3.72223 -17.04546,1.46972 -0.68573,1.46941 -2.15542,6.17161 -3.03708,10.48189 -2.64493,11.8533 -6.75926,15.08537 -14.40023,11.06897 -2.7429,-1.37145 -2.25316,-10.57939 1.56733,-28.50626 4.99602,-23.412704 6.17202,-29.093934 8.81696,-45.257504 2.93884,-17.14319 4.89819,-23.4134 7.73907,-25.47059 1.37145,-0.94287 3.04217,-1.41633 4.6855,-1.4381 z m -109.60488,5.01135 c 1.61292,-0.0924 3.28501,0.4682 4.90136,1.7172 3.72252,2.93883 7.15119,11.8535 12.04924,31.05387 5.58377,21.84532 6.85668,25.273584 9.89345,27.330764 2.44904,1.56738 2.54728,1.8607 1.86156,8.32612 -0.58778,5.87767 -0.29394,7.83719 1.95918,14.69446 1.86126,5.58378 2.44863,8.9145 2.05678,11.26558 -1.2735,6.66135 -9.20867,8.71843 -13.51896,3.5265 -2.25311,-2.64495 -2.93799,-4.5065 -5.6809,-15.47813 -1.37146,-5.68175 -3.23319,-7.15062 -8.42512,-7.15062 -8.13076,0 -10.38423,2.25345 -12.73529,12.73528 -1.66534,7.54301 -3.72169,12.63731 -5.68091,13.91079 -1.86125,1.2735 -6.95567,0.88168 -9.20879,-0.78366 -1.46941,-0.97962 -2.1544,-2.45027 -2.1544,-4.70338 0,-4.0164 3.1339,-21.64873 6.85642,-38.30211 1.56738,-7.053204 4.11455,-20.768314 5.77989,-30.564424 1.86124,-11.0696 3.72273,-19.2981 4.99622,-21.84509 1.83678,-3.61231 4.36208,-5.57913 7.05027,-5.73315 z m 66.68875,2.98894 c 1.23064,0.006 2.47472,0.58978 3.65025,1.76532 5.19194,5.19194 8.9145,18.71018 10.87373,40.16366 1.7633,19.592214 0.19607,30.269364 -5.48568,35.951114 -6.36746,6.36747 -14.2052,3.03769 -19.98489,-8.42375 l -2.74285,-5.38805 -0.48945,8.32612 c -0.48979,9.40426 -2.35088,13.81347 -6.66117,16.06657 -6.26951,3.23271 -8.13052,1.27342 -9.79585,-10.09007 -1.17554,-8.52261 -1.27351,-38.499814 0,-49.079604 1.17552,-10.28592 2.9383,-13.32272 7.15062,-12.44107 7.34708,1.46941 11.65761,7.54408 17.04546,23.80562 5.97563,18.122804 7.05349,13.224 2.25339,-10.6785 -3.33068,-16.55542 -3.62486,-21.15961 -1.46972,-25.27398 1.59187,-3.12251 3.60511,-4.7139 5.65616,-4.70338 z m -104.78738,0.86616 c 3.25185,0.0174 3.76585,0.53104 5.48018,3.44539 5.58377,9.50222 0.39275,14.10693 -21.25666,18.51518 -12.63697,2.64495 -16.84996,5.28966 -13.81317,9.01218 0.78369,0.88166 5.78011,4.89782 11.16796,9.01218 12.63696,9.50223 19.59127,16.164044 22.82397,21.649864 2.25312,3.72251 2.64523,5.58312 2.64523,11.85263 0,6.56338 -0.39107,7.93591 -2.93808,12.14823 -3.62453,5.87767 -9.30723,10.38352 -16.85022,13.32235 -4.60418,1.86125 -7.64053,2.25339 -16.45702,2.25339 -11.75533,0.098 -16.35999,-0.98053 -20.47436,-4.801 -2.93882,-2.74291 -3.33064,-6.56308 -1.1755,-11.75501 3.62456,-8.71854 10.28689,-10.87425 14.89106,-4.89862 2.54698,3.33067 2.74198,3.42924 9.59924,3.33128 8.42465,0 13.02876,-1.46962 15.57574,-4.99623 1.76332,-2.25309 1.76363,-2.93834 0.68606,-5.58329 -1.56738,-3.91844 -5.58326,-7.44559 -20.37537,-18.12335 -18.6126,-13.420664 -25.46957,-21.158874 -24.19608,-27.036544 0.97962,-4.21233 5.58281,-10.09032 10.77474,-13.51896 9.69814,-6.36747 31.93558,-13.71521 42.31944,-13.81317 0.58776,-0.0122 1.10829,-0.019 1.57284,-0.0165 z m -98.105603,7.1465 c 2.63118,-0.009 6.87348,0.5604 7.97554,1.29512 0.48981,0.29388 1.86187,2.54685 2.93945,5.09383 1.86126,4.01641 2.05779,6.4652 2.15577,22.23693 0,15.08599 0.29349,17.9274 1.66495,19.298844 2.44903,2.54701 3.0364,6.75939 1.27312,10.09007 -2.05718,3.91845 -1.86163,9.11079 0.88129,23.60903 1.27348,6.95523 2.64555,14.39915 2.93943,16.65225 l 0.58707,4.21256 h -4.11357 c -9.50223,0 -14.20456,-6.56307 -17.82914,-24.97975 -0.78368,-3.82049 -1.66493,-8.62099 -2.05678,-10.77613 -0.88164,-5.38786 -2.93864,-7.34723 -7.44484,-7.34723 -3.23272,0 -3.91936,0.39246 -4.40917,2.54761 -0.39183,1.37144 -0.19627,6.17127 0.48945,10.57952 1.46942,10.77572 1.37216,20.37564 -0.19523,22.62875 -1.07757,1.37145 -2.05671,1.56771 -4.79962,1.07789 -6.75931,-1.27349 -11.07028,-6.66126 -13.42135,-16.75125 -1.37145,-6.17155 -3.23298,-22.33439 -3.03705,-27.42837 0,-2.15514 0.19625,-12.343204 0.29422,-22.531144 0.19592,-20.27794 0.58796,-21.94434 5.77989,-24.5893 2.54699,-1.27349 3.722,-1.37109 6.7588,-0.48944 4.89805,1.46941 9.11119,6.46517 8.3275,9.79585 -0.29389,1.37145 -0.88161,8.32697 -1.1755,15.47812 l -0.68606,12.93052 3.72312,0.68606 c 6.66135,1.17552 6.75808,0.97944 7.34586,-19.78831 0.4898,-18.22075 1.17611,-21.94335 4.11493,-23.3148 0.34287,-0.14694 1.04087,-0.21417 1.91792,-0.21723 z m 31.584573,4.5274 c 2.2531,0 5.09449,0.58876 6.46595,1.27449 3.62455,1.86126 4.89765,7.64066 2.44861,11.75502 -2.44902,4.11437 -3.03675,15.47838 -1.56733,31.739924 2.93882,33.40472 3.13472,37.8126 1.56733,40.16366 -1.17552,1.66534 -2.44958,2.2534 -5.29044,2.25339 -5.191953,0 -9.306013,-3.52668 -11.363183,-9.69823 -3.33069,-10.08998 -4.80004,-60.736104 -1.95917,-68.768914 2.2531,-6.26951 4.89814,-8.71934 9.698233,-8.71934 z m 215.89086,18.03949 c -0.46874,-0.0536 -0.76854,0.86818 -0.76854,2.23964 0,1.46941 -1.07717,6.17093 -2.44861,10.28529 -3.0368,9.50223 -2.64436,10.77613 3.33127,10.38429 l 4.50539,-0.29422 0.29423,-4.31018 c 0.29389,-4.40824 -2.93871,-17.14339 -4.70201,-18.22096 -0.0735,-0.049 -0.14476,-0.0762 -0.21173,-0.0839 z m -109.30928,4.98247 -0.68606,3.91834 c -0.48981,2.15515 -1.56662,6.26856 -2.54623,9.20741 -1.07757,2.93883 -1.86156,6.563524 -1.86156,8.130904 0,2.64495 0.19548,2.74284 4.40779,2.74284 5.87766,0 6.85784,-1.86134 5.29044,-10.090074 -0.68571,-3.33068 -1.9588,-7.83593 -2.84044,-9.99108 z"
     style="fill:#ff0000;fill-opacity:1;stroke:none;stroke-width:0.09796105" />
</svg>
