<?xml version="1.0" encoding="UTF-8" standalone="no"?>
<svg
   xmlns:dc="http://purl.org/dc/elements/1.1/"
   xmlns:cc="http://creativecommons.org/ns#"
   xmlns:rdf="http://www.w3.org/1999/02/22-rdf-syntax-ns#"
   xmlns:svg="http://www.w3.org/2000/svg"
   xmlns="http://www.w3.org/2000/svg"
   xmlns:sodipodi="http://sodipodi.sourceforge.net/DTD/sodipodi-0.dtd"
   xmlns:inkscape="http://www.inkscape.org/namespaces/inkscape"
   id="Capa_1"
   enable-background="new 0 0 512 512"
   height="512"
   viewBox="0 0 512 512"
   width="512"
   version="1.1"
   sodipodi:docname="404-error.svg"
   inkscape:version="0.92.5 (2060ec1f9f, 2020-04-08)">
  <metadata
     id="metadata61">
    <rdf:RDF>
      <cc:Work
         rdf:about="">
        <dc:format>image/svg+xml</dc:format>
        <dc:type
           rdf:resource="http://purl.org/dc/dcmitype/StillImage" />
        <dc:title></dc:title>
      </cc:Work>
    </rdf:RDF>
  </metadata>
  <defs
     id="defs59" />
  <sodipodi:namedview
     pagecolor="#ffffff"
     bordercolor="#666666"
     borderopacity="1"
     objecttolerance="10"
     gridtolerance="10"
     guidetolerance="10"
     inkscape:pageopacity="0"
     inkscape:pageshadow="2"
     inkscape:window-width="1324"
     inkscape:window-height="740"
     id="namedview57"
     showgrid="false"
     inkscape:zoom="0.921875"
     inkscape:cx="107.84607"
     inkscape:cy="249.4905"
     inkscape:window-x="36"
     inkscape:window-y="0"
     inkscape:window-maximized="1"
     inkscape:current-layer="Capa_1" />
  <g
     id="g4"
     transform="translate(-3.0681243,1.5340622)"
     style="fill:#f9f9f9">
    <path
       style="fill:#f9f9f9"
       inkscape:connector-curvature="0"
       id="path2"
       d="M 403.484,504.5 H 108.516 c -16.737,0 -30.305,-13.568 -30.305,-30.305 V 88.313 h 355.577 v 385.882 c 10e-4,16.737 -13.567,30.305 -30.304,30.305 z" />
  </g>
  <g
     id="g8"
     transform="translate(-3.0681243,1.5340622)"
     style="fill:#e6e6e6">
    <path
       style="fill:#e6e6e6"
       inkscape:connector-curvature="0"
       id="path6"
       d="m 399.443,88.313 v 385.882 c 0,16.737 -13.568,30.305 -30.305,30.305 h 34.346 c 16.737,0 30.305,-13.568 30.305,-30.305 V 88.313 Z" />
  </g>
  <g
     id="g12"
     transform="translate(-3.0681243,1.5340622)"
     style="fill:#afc6e9">
    <path
       style="fill:#afc6e9"
       inkscape:connector-curvature="0"
       id="path10"
       d="M 403.484,7.5 H 108.516 C 91.779,7.5 78.211,21.068 78.211,37.805 V 88.313 H 433.788 V 37.805 C 433.789,21.068 420.221,7.5 403.484,7.5 Z" />
  </g>
  <g
     id="g16"
     transform="translate(-3.0681243,1.5340622)"
     style="fill:#87aade">
    <path
       style="fill:#87aade"
       inkscape:connector-curvature="0"
       id="path14"
       d="m 403.484,7.5 h -34.346 c 16.737,0 30.305,13.568 30.305,30.305 v 50.508 h 34.346 V 37.805 C 433.789,21.068 420.221,7.5 403.484,7.5 Z" />
  </g>
  <g
     id="g30"
     transform="translate(-3.0681243,1.5340622)">
    <g
       id="g20">
      <path
         style="fill:#e28086"
         inkscape:connector-curvature="0"
         id="path18"
         d="M 212.538,147.673 156.41,237.21 c -21.374,34.097 3.136,78.389 43.378,78.389 h 112.256 c 40.243,0 64.753,-44.292 43.378,-78.389 l -56.128,-89.537 c -20.063,-32.006 -66.693,-32.006 -86.756,0 z" />
    </g>
    <g
       id="g24">
      <path
         style="fill:#dd636e"
         inkscape:connector-curvature="0"
         id="path22"
         d="m 355.422,237.21 -39.873,-63.607 c 1.179,7.053 1.803,14.295 1.803,21.683 0,54.095 -32.901,100.505 -79.784,120.313 h 74.476 c 40.242,0.001 64.753,-44.292 43.378,-78.389 z" />
    </g>
    <g
       id="g28">
      <path
         style="fill:#f4fbff"
         inkscape:connector-curvature="0"
         id="path26"
         d="m 281.397,233.776 9.749,-9.749 c 7.014,-7.013 7.014,-18.384 0,-25.398 -7.013,-7.013 -18.384,-7.013 -25.397,0 l -9.75,9.75 -9.75,-9.75 c -7.013,-7.013 -18.384,-7.013 -25.397,0 -7.014,7.013 -7.014,18.384 0,25.398 l 9.749,9.749 -9.749,9.749 c -7.014,7.013 -7.014,18.384 0,25.398 3.506,3.506 8.102,5.26 12.698,5.26 4.596,0 9.192,-1.753 12.698,-5.26 l 9.75,-9.75 9.75,9.75 c 3.506,3.506 8.102,5.26 12.698,5.26 4.596,0 9.192,-1.753 12.698,-5.26 7.014,-7.013 7.014,-18.384 0,-25.398 z" />
    </g>
  </g>
  <g
     id="g52"
     transform="translate(-3.0681243,1.5340622)">
    <path
       inkscape:connector-curvature="0"
       id="path32"
       d="m 378.18,366.356 c -0.536,-6.434 -4.291,-11.647 -9.567,-13.281 -2.487,-0.771 -8.93,-1.753 -15.023,5.722 -5.629,6.906 -33.884,57.954 -39.491,68.117 -1.281,2.323 -1.24,5.151 0.109,7.436 1.349,2.285 3.805,3.687 6.458,3.687 h 42.462 c -0.055,7.782 -0.114,15.287 -0.172,21.952 -0.035,4.142 3.293,7.528 7.436,7.564 h 0.065 c 4.112,0 7.463,-3.315 7.499,-7.436 0.022,-2.609 0.095,-11.143 0.173,-22.081 h 5.338 c 4.143,0 7.5,-3.358 7.5,-7.5 0,-4.142 -3.357,-7.5 -7.5,-7.5 h -5.238 c 0.15,-24.73 0.25,-53.076 -0.049,-56.68 z m -14.954,56.681 h -29.827 c 10.907,-19.585 24.475,-43.507 29.926,-52.014 0.109,8.384 0.034,29.87 -0.099,52.014 z" />
    <path
       inkscape:connector-curvature="0"
       id="path34"
       d="m 122.625,434.35 c 1.349,2.285 3.805,3.687 6.458,3.687 h 42.462 c -0.055,7.783 -0.114,15.286 -0.171,21.952 -0.036,4.142 3.293,7.528 7.435,7.564 h 0.066 c 4.111,0 7.463,-3.315 7.498,-7.436 0.023,-2.609 0.095,-11.143 0.173,-22.081 h 5.337 c 4.142,0 7.5,-3.358 7.5,-7.5 0,-4.142 -3.358,-7.5 -7.5,-7.5 h -5.238 c 0.151,-24.73 0.252,-53.076 -0.048,-56.681 -0.536,-6.434 -4.292,-11.647 -9.568,-13.281 -2.486,-0.77 -8.929,-1.754 -15.022,5.722 -5.629,6.906 -33.884,57.954 -39.491,68.117 -1.282,2.324 -1.241,5.152 0.109,7.437 z m 49.117,-63.328 c 0.109,8.384 0.035,29.871 -0.099,52.014 h -29.827 c 10.908,-19.584 24.475,-43.506 29.926,-52.014 z" />
    <path
       inkscape:connector-curvature="0"
       id="path36"
       d="m 220.673,387.832 v 44.436 c 0,19.456 15.829,35.285 35.285,35.285 19.457,0 35.286,-15.829 35.286,-35.285 v -44.436 c 0,-19.456 -15.829,-35.285 -35.286,-35.285 -19.456,0 -35.285,15.829 -35.285,35.285 z m 55.571,0 v 44.436 c 0,11.185 -9.1,20.285 -20.286,20.285 -11.185,0 -20.285,-9.1 -20.285,-20.285 v -44.436 c 0,-11.185 9.1,-20.285 20.285,-20.285 11.187,0 20.286,9.1 20.286,20.285 z" />
    <path
       inkscape:connector-curvature="0"
       id="path38"
       d="m 305.648,143.689 c -10.803,-17.232 -29.395,-27.521 -49.733,-27.521 -20.338,0 -38.93,10.288 -49.732,27.521 l -56.128,89.538 c -11.509,18.358 -12.116,40.637 -1.625,59.596 10.491,18.958 29.69,30.277 51.358,30.277 h 112.256 c 21.668,0 40.867,-11.319 51.358,-30.277 10.49,-18.958 9.883,-41.237 -1.626,-59.595 z m 44.629,141.871 c -7.811,14.114 -22.103,22.54 -38.233,22.54 H 199.788 c -16.13,0 -30.423,-8.426 -38.233,-22.54 -7.81,-14.114 -7.358,-30.699 1.209,-44.366 l 56.128,-89.538 c 8.042,-12.829 21.883,-20.487 37.023,-20.487 15.141,0 28.982,7.659 37.024,20.487 l 56.128,89.538 c 8.568,13.667 9.02,30.252 1.21,44.366 z" />
    <path
       inkscape:connector-curvature="0"
       id="path40"
       d="m 303.906,211.329 c 0,-6.8 -2.647,-13.194 -7.456,-18.002 -4.809,-4.808 -11.202,-7.457 -18.002,-7.457 -6.8,0 -13.193,2.648 -18.002,7.457 l -4.446,4.445 -4.447,-4.446 c -4.808,-4.808 -11.201,-7.457 -18.001,-7.457 -6.8,0 -13.193,2.648 -18.001,7.456 -4.809,4.809 -7.458,11.202 -7.458,18.003 0,6.8 2.648,13.193 7.458,18.002 l 4.446,4.446 -4.445,4.446 c -4.81,4.809 -7.458,11.202 -7.458,18.002 0,6.8 2.648,13.194 7.458,18.002 4.808,4.809 11.201,7.457 18.001,7.457 6.8,0 13.193,-2.648 18.001,-7.457 l 4.446,-4.446 4.447,4.447 c 4.809,4.808 11.201,7.456 18.001,7.456 6.801,0 13.194,-2.648 18.001,-7.456 4.81,-4.809 7.457,-11.202 7.457,-18.002 0,-6.8 -2.647,-13.194 -7.456,-18.002 l -4.446,-4.446 4.446,-4.446 c 4.809,-4.809 7.456,-11.203 7.456,-18.002 z m -18.063,52.292 c -1.975,1.975 -4.601,3.062 -7.395,3.062 -2.793,0 -5.42,-1.088 -7.395,-3.063 l -9.75,-9.75 c -1.406,-1.407 -3.314,-2.197 -5.303,-2.197 -1.989,0 -3.897,0.79 -5.303,2.197 l -9.75,9.75 c -1.975,1.975 -4.602,3.063 -7.395,3.063 -2.793,0 -5.42,-1.088 -7.396,-3.063 -1.976,-1.975 -3.063,-4.602 -3.063,-7.395 0,-2.793 1.088,-5.42 3.064,-7.396 l 9.749,-9.75 c 2.929,-2.929 2.929,-7.678 0,-10.606 l -9.749,-9.75 c -1.976,-1.975 -3.064,-4.602 -3.064,-7.395 0,-2.794 1.088,-5.42 3.064,-7.396 4.078,-4.077 10.712,-4.077 14.79,0 l 9.75,9.75 c 1.406,1.407 3.314,2.197 5.303,2.197 1.989,0 3.897,-0.79 5.303,-2.197 l 9.75,-9.75 c 4.076,-4.077 10.713,-4.077 14.789,0 4.078,4.078 4.078,10.713 0,14.792 l -9.749,9.749 c -2.929,2.929 -2.929,7.677 0,10.606 l 9.75,9.75 c 1.975,1.975 3.062,4.602 3.062,7.395 0,2.793 -1.087,5.421 -3.062,7.397 z" />
    <path
       inkscape:connector-curvature="0"
       id="path42"
       d="M 403.48,0 H 215.59 c -4.142,0 -7.5,3.358 -7.5,7.5 0,4.142 3.358,7.5 7.5,7.5 h 187.89 c 12.577,0 22.81,10.228 22.81,22.8 V 80.813 H 85.71 V 37.8 C 85.71,25.228 95.942,15 108.52,15 h 72.07 c 4.142,0 7.5,-3.358 7.5,-7.5 0,-4.142 -3.358,-7.5 -7.5,-7.5 H 108.52 C 87.671,0 70.71,16.957 70.71,37.8 v 318.25 c 0,4.142 3.358,7.5 7.5,7.5 4.142,0 7.5,-3.358 7.5,-7.5 V 95.813 h 340.58 v 48.477 c 0,4.142 3.357,7.5 7.5,7.5 4.143,0 7.5,-3.358 7.5,-7.5 V 37.8 C 441.29,16.957 424.329,0 403.48,0 Z" />
    <path
       inkscape:connector-curvature="0"
       id="path44"
       d="m 433.79,171.79 c -4.143,0 -7.5,3.358 -7.5,7.5 V 474.2 c 0,12.572 -10.232,22.8 -22.81,22.8 H 108.52 C 95.942,497 85.71,486.772 85.71,474.2 v -83.15 c 0,-4.142 -3.358,-7.5 -7.5,-7.5 -4.142,0 -7.5,3.358 -7.5,7.5 v 83.15 c 0,20.843 16.961,37.8 37.81,37.8 h 294.96 c 20.849,0 37.81,-16.957 37.81,-37.8 V 179.29 c 0,-4.142 -3.357,-7.5 -7.5,-7.5 z" />
    <circle
       r="13.132"
       id="ellipse46"
       transform="matrix(0.987,-0.16,0.16,0.987,-2.699,62.337)"
       cy="47.905998"
       cx="385.30099" />
    <circle
       r="13.132"
       id="ellipse48"
       transform="matrix(0.924,-0.383,0.383,0.924,7.613,134.085)"
       cy="47.905998"
       cx="340.854" />
    <circle
       r="13.132"
       id="ellipse50"
       transform="matrix(0.973,-0.23,0.23,0.973,-3.078,69.382)"
       cy="47.905998"
       cx="296.40701" />
  </g>
</svg>
